<svg xmlns="http://www.w3.org/2000/svg" width="32" height="32" viewBox="0 0 32 32">
    <g fill="none" fill-rule="evenodd">
        <circle cx="16" cy="16" r="16" fill="#FFF"/>
        <path stroke="#000" stroke-linecap="round" stroke-linejoin="round" d="M26.483 8.836a10.048 10.048 0 0 1-2.835 1.318c-1.114-1.222-2.909-1.65-4.494-1.073-1.586.577-2.625 2.037-2.602 3.655v.861c-3.223.08-6.273-1.384-8.126-3.9 0 0-3.611 7.749 4.514 11.192a10.886 10.886 0 0 1-6.32 1.722c8.126 4.305 18.057 0 18.057-9.9a3.7 3.7 0 0 0-.072-.715 6.576 6.576 0 0 0 1.878-3.16z"/>
    </g>
</svg>
