<svg xmlns="http://www.w3.org/2000/svg" width="72" height="72" viewBox="0 0 72 72">
    <defs>
        <linearGradient id="prefix__a" x1="0%" x2="100%" y1="79.624%" y2="20.376%">
            <stop offset="0%" stop-color="#FF343A"/>
            <stop offset="100%" stop-color="#FFD6A2"/>
        </linearGradient>
    </defs>
    <g fill="none" fill-rule="evenodd">
        <g>
            <g transform="translate(10.779 5.085) translate(0 .654)">
                <circle cx="13.473" cy="43.663" r="13.473" fill="#EEE"/>
                <circle cx="9.88" cy="9.88" r="9.88" fill="#EEE" transform="translate(32.8)"/>
            </g>
            <g fill="#FF4C47">
                <path d="M1.848.296c.253 0 .462.186.498.43L2.352.8v1.796c0 .279-.226.504-.504.504-.253 0-.463-.186-.499-.43l-.005-.074V.8c0-.278.226-.504.504-.504z" transform="translate(10.779 5.085) translate(47.404 13.576)"/>
                <path d="M3.305 1.698c0-.253-.187-.462-.43-.498l-.074-.006H.895c-.278 0-.504.226-.504.504 0 .253.187.463.43.499l.074.005h1.906c.278 0 .504-.225.504-.504z" transform="translate(10.779 5.085) translate(47.404 13.576)"/>
            </g>
            <g fill="#FF4C47">
                <path d="M2.147.145c.334 0 .61.25.65.573L2.803.8v2.395c0 .362-.294.655-.656.655-.334 0-.61-.25-.65-.573l-.005-.082V.8c0-.362.293-.655.655-.655z" transform="translate(10.779 5.085) translate(9.221 9.315)"/>
                <path d="M4.027 1.998c0-.334-.25-.61-.573-.65l-.082-.006H.922c-.361 0-.655.294-.655.656 0 .334.25.61.573.65l.082.005h2.45c.362 0 .655-.294.655-.655z" transform="translate(10.779 5.085) translate(9.221 9.315)"/>
            </g>
            <g fill="#FF4C47">
                <path d="M2.447.145c.334 0 .61.25.65.573L3.102.8v3.293c0 .362-.293.656-.655.656-.334 0-.61-.25-.65-.573l-.005-.083V.8c0-.362.293-.655.655-.655z" transform="translate(10.779 5.085) translate(34.821 55.715)"/>
                <path d="M4.749 2.447c0-.334-.25-.61-.573-.65l-.083-.005H.8c-.362 0-.655.293-.655.655 0 .334.25.61.573.65l.082.005h3.293c.362 0 .656-.293.656-.655z" transform="translate(10.779 5.085) translate(34.821 55.715)"/>
            </g>
            <path fill="#FF4C47" d="M2.395 35.335c0 .66.537 1.197 1.198 1.197.662 0 1.197-.536 1.197-1.197 0-.662-.535-1.198-1.197-1.198-.661 0-1.198.536-1.198 1.198z" transform="translate(10.779 5.085)"/>
        </g>
        <path fill="#FF4C47" d="M26.4 59.598c0 .66.537 1.197 1.198 1.197.661 0 1.197-.536 1.197-1.197 0-.662-.536-1.198-1.197-1.198s-1.198.536-1.198 1.198z"/>
        <path fill="url(#prefix__a)" d="M63.609 49.206l-2.912 1.385.255 4.914H35.048l1.302-26.667h3.69v4.445c0 .817.647 1.481 1.447 1.481.799 0 1.447-.664 1.447-1.481v-4.445h10.132v4.445c0 .817.647 1.481 1.447 1.481.799 0 1.447-.664 1.447-1.481v-4.445h3.69l.648 12.843.4 8.91m-18.031-28.61c0-2.941 2.221-5.333 4.952-5.333 2.73 0 4.952 2.392 4.952 5.333v3.81h-9.904v-3.81zM48 13.6c4.41 0 8 3.697 8 8.241v3.746h5.09c.776 0 1.413.627 1.454 1.424.173 3.57.528 10.97 1.065 22.195.081 1.68.196 3.798.39 7.773.04.848-.616 1.573-1.454 1.573h-29.09c-.834 0-1.494-.719-1.453-1.573l1.454-29.968c.04-.797.678-1.424 1.453-1.424H40v-3.746c0-4.544 3.588-8.241 8-8.241zM22.459 46.762c.883 0 1.6.716 1.6 1.6 0 .843-.653 1.534-1.481 1.596l-.12.004H7.2c-.884 0-1.6-.716-1.6-1.6 0-.844.653-1.535 1.48-1.596l.12-.004h15.259zm3.2-8c.883 0 1.6.716 1.6 1.6 0 .843-.653 1.534-1.481 1.596l-.12.004H10.4c-.884 0-1.6-.716-1.6-1.6 0-.844.653-1.535 1.48-1.596l.12-.004h15.259zm4.378-7.162c.884 0 1.6.716 1.6 1.6 0 .843-.653 1.535-1.48 1.596l-.12.004H14.78c-.884 0-1.6-.716-1.6-1.6 0-.843.652-1.535 1.48-1.596l.12-.004h15.258z"/>
    </g>
</svg>
