<svg xmlns="http://www.w3.org/2000/svg" width="72" height="72" viewBox="0 0 72 72">
    <defs>
        <linearGradient id="prefix__a" x1="0%" x2="100%" y1="100%" y2="0%">
            <stop offset="0%" stop-color="#FF343A"/>
            <stop offset="100%" stop-color="#FFD6A2"/>
        </linearGradient>
    </defs>
    <g fill="none" fill-rule="evenodd">
        <g>
            <g transform="translate(2.779 3.485) translate(0 .654)">
                <circle cx="52.673" cy="43.663" r="13.473" fill="#EEE"/>
                <circle cx="9.88" cy="9.88" r="9.88" fill="#EEE"/>
            </g>
            <g fill="#FF4C47">
                <path d="M2.147.145c.334 0 .61.25.65.573L2.803.8v2.395c0 .362-.294.655-.656.655-.334 0-.61-.25-.65-.573l-.005-.082V.8c0-.362.293-.655.655-.655z" transform="translate(2.779 3.485) translate(29.59 .8)"/>
                <path d="M4.027 1.998c0-.334-.25-.61-.573-.65l-.082-.006H.922c-.361 0-.655.294-.655.656 0 .334.25.61.573.65l.082.005h2.45c.362 0 .655-.294.655-.655z" transform="translate(2.779 3.485) translate(29.59 .8)"/>
            </g>
            <g fill="#FF4C47">
                <path d="M2.447.145c.334 0 .61.25.65.573L3.102.8v3.293c0 .362-.293.656-.655.656-.334 0-.61-.25-.65-.573l-.005-.083V.8c0-.362.293-.655.655-.655z" transform="translate(2.779 3.485) translate(40.247 58.59)"/>
                <path d="M4.749 2.447c0-.334-.25-.61-.573-.65l-.083-.005H.8c-.362 0-.655.293-.655.655 0 .334.25.61.573.65l.082.005h3.293c.362 0 .656-.293.656-.655z" transform="translate(2.779 3.485) translate(40.247 58.59)"/>
            </g>
        </g>
        <path fill="#FF4C47" d="M6.774 40.42c0 .66.536 1.197 1.197 1.197.662 0 1.198-.536 1.198-1.197 0-.662-.536-1.198-1.198-1.198-.66 0-1.197.536-1.197 1.198z"/>
        <g fill="#FF4C47">
            <path d="M1.848.296c.253 0 .462.186.498.43L2.352.8v1.796c0 .279-.226.504-.504.504-.253 0-.463-.186-.499-.43l-.005-.074V.8c0-.278.226-.504.504-.504z" transform="translate(64.583 21.861)"/>
            <path d="M3.305 1.698c0-.253-.187-.462-.43-.498l-.074-.006H.895c-.278 0-.504.226-.504.504 0 .253.187.463.43.499l.074.005h1.906c.278 0 .504-.225.504-.504z" transform="translate(64.583 21.861)"/>
        </g>
        <path fill="url(#prefix__a)" d="M42.624 11.27c8.838 2.364 15.742 9.268 18.106 18.107 2.365 8.838-.17 18.267-6.646 24.727-4.789 4.815-11.306 7.514-18.095 7.496-10.35 0-19.68-6.235-23.64-15.797-3.961-9.562-1.772-20.568 5.546-27.885 6.462-6.478 15.89-9.013 24.729-6.648zm-6.633 2.233c-9.106 0-17.313 5.484-20.797 13.894-3.484 8.411-1.558 18.092 4.88 24.53 8.79 8.79 23.04 8.79 31.83 0s8.79-23.042-.001-31.833c-4.211-4.234-9.94-6.607-15.912-6.591zm19.776 24.64c.423.357.623.912.524 1.452-1.513 8.529-8.19 15.206-16.719 16.719-.088.015-.178.023-.267.023-.8 0-1.466-.611-1.535-1.408-.07-.796.483-1.513 1.268-1.65 7.254-1.286 12.932-6.965 14.218-14.212.091-.545.468-1 .987-1.19.52-.192 1.101-.09 1.524.266zm-13.974-6.16c2.683 0 4.858 2.175 4.858 4.857 0 2.557-1.979 4.663-4.515 4.845l-.17.01-.173.003h-1.777v3.435c0 .777-.574 1.419-1.322 1.525l-.107.011-.11.004c-.751 0-1.384-.54-1.519-1.296l-.016-.116-.006-.128v-11.61c0-.75.54-1.384 1.297-1.518l.115-.016.129-.006h3.316zm-9.95-6.634c2.397 0 4.436 1.749 4.8 4.119.308 2-.655 3.943-2.357 4.935l-.162.09-.06.03 2.473 4.945c.345.69.124 1.515-.487 1.947l-.1.064-.101.056c-.365.183-.789.213-1.177.084-.29-.097-.543-.277-.743-.54l-.082-.117-.065-.116-2.892-5.783h-2.483v5.094c0 .777-.575 1.42-1.322 1.525l-.108.012-.11.004c-.75 0-1.384-.54-1.518-1.297l-.016-.115-.006-.129V26.89c0-.75.54-1.384 1.296-1.518l.115-.016.129-.006h4.976zm9.95 9.715h-1.777v3.553h1.777c.98-.001 1.776-.796 1.777-1.776-.001-.942-.734-1.712-1.66-1.774l-.117-.003zm-7.604-18.105c.147.838-.413 1.637-1.25 1.783-7.253 1.287-12.932 6.966-14.218 14.218-.13.736-.768 1.273-1.516 1.274-.455 0-.887-.2-1.18-.549-.294-.348-.417-.809-.338-1.259 1.512-8.528 8.189-15.205 16.719-16.718.838-.147 1.636.413 1.783 1.251zm-5.782 11.47v3.553h3.436c.98 0 1.776-.795 1.776-1.776 0-.942-.733-1.713-1.66-1.773l-.116-.004h-3.436z"/>
    </g>
</svg>
