<svg xmlns="http://www.w3.org/2000/svg" width="24" height="24" viewBox="0 0 24 24">
    <g fill="none">
        <path fill="#CD2900" d="M17.395 8.186a6.516 6.516 0 00-5.407-2.812A6.547 6.547 0 007.245 7.39l-.289.3-2.555-2.192.316-.337a9.96 9.96 0 017.271-3.155c1.646 0 3.273.404 4.704 1.168a9.997 9.997 0 013.579 3.249l.117.175a.243.243 0 01-.078.344l-2.488 1.466a.242.242 0 01-.322-.07l-.105-.15z"/>
        <path fill="#FFCE00" d="M3.29 16.842a9.96 9.96 0 01-1.272-4.867c0-2.255.738-4.385 2.134-6.158l.285-.362 2.555 2.192-.253.332a6.534 6.534 0 00-1.352 3.996c0 1.093.274 2.176.792 3.133l.2.367-2.864 1.77-.226-.403z"/>
        <path fill="#40A459" d="M11.988 21.946a9.975 9.975 0 01-8.242-4.367l-.26-.382 2.863-1.77.24.34a6.617 6.617 0 005.4 2.81 6.645 6.645 0 004.751-2.021l.29-.3 2.552 2.19-.315.336a9.959 9.959 0 01-7.279 3.164z"/>
        <path fill="#1D81CE" d="M16.994 16.298l.252-.332a6.563 6.563 0 00.954-1.754h-4.892a.242.242 0 01-.243-.242v-2.885c0-.134.109-.242.243-.242h8.622l.029 1.138a9.862 9.862 0 01-2.128 6.144l-.285.363-2.552-2.19z"/>
        <path fill="#FFF" fill-opacity=".01" d="M24 0v24H0V0h24zm-.1.1H.1v23.8h23.8V.1z"/>
    </g>
</svg>
