<svg xmlns="http://www.w3.org/2000/svg" width="72" height="72" viewBox="0 0 72 72">
    <defs>
        <linearGradient id="prefix__a" x1="0%" x2="100%" y1="80.147%" y2="19.853%">
            <stop offset="0%" stop-color="#FF343A"/>
            <stop offset="100%" stop-color="#FFD6A2"/>
        </linearGradient>
    </defs>
    <g fill="none" fill-rule="evenodd">
        <g>
            <g transform="translate(3.979 6.485) translate(0 .654)">
                <circle cx="49.673" cy="40.063" r="13.473" fill="#EEE"/>
                <circle cx="9.88" cy="9.88" r="9.88" fill="#EEE"/>
            </g>
            <g fill="#FF4C47">
                <path d="M2.147.145c.334 0 .61.25.65.573L2.803.8v2.395c0 .362-.294.655-.656.655-.334 0-.61-.25-.65-.573l-.005-.082V.8c0-.362.293-.655.655-.655z" transform="translate(3.979 6.485) translate(29.99 .2)"/>
                <path d="M4.027 1.998c0-.334-.25-.61-.573-.65l-.082-.006H.922c-.361 0-.655.294-.655.656 0 .334.25.61.573.65l.082.005h2.45c.362 0 .655-.294.655-.655z" transform="translate(3.979 6.485) translate(29.99 .2)"/>
            </g>
            <g fill="#FF4C47">
                <path d="M2.447.145c.334 0 .61.25.65.573L3.102.8v3.293c0 .362-.293.656-.655.656-.334 0-.61-.25-.65-.573l-.005-.083V.8c0-.362.293-.655.655-.655z" transform="translate(3.979 6.485) translate(32.647 57.99)"/>
                <path d="M4.749 2.447c0-.334-.25-.61-.573-.65l-.083-.005H.8c-.362 0-.655.293-.655.655 0 .334.25.61.573.65l.082.005h3.293c.362 0 .656-.293.656-.655z" transform="translate(3.979 6.485) translate(32.647 57.99)"/>
            </g>
        </g>
        <path fill="#FF4C47" d="M6.774 40.42c0 .66.536 1.197 1.197 1.197.662 0 1.198-.536 1.198-1.197 0-.662-.536-1.198-1.198-1.198-.66 0-1.197.536-1.197 1.198z"/>
        <g fill="#FF4C47">
            <path d="M1.848.296c.253 0 .462.186.498.43L2.352.8v1.796c0 .279-.226.504-.504.504-.253 0-.463-.186-.499-.43l-.005-.074V.8c0-.278.226-.504.504-.504z" transform="translate(64.583 21.861)"/>
            <path d="M3.305 1.698c0-.253-.187-.462-.43-.498l-.074-.006H.895c-.278 0-.504.226-.504.504 0 .253.187.463.43.499l.074.005h1.906c.278 0 .504-.225.504-.504z" transform="translate(64.583 21.861)"/>
        </g>
        <g fill="url(#prefix__a)" transform="translate(15 19.2)">
            <path d="M16.075 32.31c-.4.404-.947.629-1.515.629s-1.115-.225-1.515-.628L.942 20.206c-1.256-1.256-1.256-3.293 0-4.546l1.515-1.516c1.257-1.256 3.291-1.256 4.547 0L14.56 21.7 34.977 1.283c1.256-1.256 3.293-1.256 4.547 0l1.515 1.516c1.256 1.256 1.256 3.292 0 4.546L16.075 32.31z"/>
        </g>
    </g>
</svg>
