<?xml version="1.0" encoding="UTF-8"?>
<svg viewBox="0 0 108 48" xmlns="http://www.w3.org/2000/svg" xmlns:xlink="http://www.w3.org/1999/xlink">
<defs>
<path id="g" d="m0.148 0.167h17.568v33.168h-17.568z"/>
<path id="e" d="M3.378 3.698C1.131 5.707.007 8.523.005 12.147l-.003 4.58c-.038.918.536 1.89 1.326 2.278 1.334.656 3.473-.271 5.39-1.459-.044-.415-.065-.854-.065-1.317l.003-3.805c.002-4.514 2.024-6.77 6.065-6.768 4.078.002 6.117 2.261 6.114 6.775l-.002 3.805c-.003 4.515-2.044 6.77-6.122 6.768-3.117-.003-5.029-1.347-5.74-4.032l-4.497 5.226c.275.306.57.6.89.876 2.244 1.929 5.368 2.895 9.372 2.896 4.003.002 7.128-1 9.375-3.008 2.246-2.008 3.371-4.824 3.373-8.45l.002-4.843c.003-3.46-1.118-6.154-3.362-8.082C19.88 1.658 16.756.691 12.752.689h-.016c-3.996 0-7.115 1.004-9.358 3.009"/>
<path id="b" d="m0.281 0.787h4.49v6.651h-4.49z"/>
<linearGradient id="d" x1="18.615%" x2="81.392%" y1="90.044%" y2="9.96%">
<stop stop-color="#FF4B46" offset="0"/>
<stop stop-color="#FFD6A1" offset="1"/>
</linearGradient>
</defs>
<g fill="none" fill-rule="evenodd">
<path transform="translate(29 7.213)" d="M7.549 11.828L7.547 14.2c.599-1.086 1.545-1.992 2.836-2.716 1.29-.724 2.647-1.086 4.07-1.085l1.235.001c.56 0 .935.092 1.122.272.187.182.28.552.28 1.113l-.001 2.668c-.001.561-.095.932-.282 1.112-.187.182-.561.272-1.122.271h-1.572c-1.908-.002-3.461.55-4.66 1.653-1.198 1.103-1.797 2.56-1.798 4.372L7.647 34.86c-.001.56-.113.94-.338 1.136-.224.2-.711.297-1.46.296l-3.086-.002c-.712 0-1.19-.099-1.431-.296-.244-.199-.365-.577-.365-1.137l.015-23.03c0-.56.122-.94.365-1.138.244-.197.72-.297 1.432-.296l2.975.002c.748 0 1.234.1 1.459.297.224.198.336.577.336 1.137M27.074 21.477l-.002 3.806c-.003 4.514 2.017 6.772 6.058 6.774 4.078.003 6.12-2.253 6.122-6.767l.002-3.805c.003-4.514-2.035-6.772-6.114-6.775-4.04-.002-6.063 2.253-6.066 6.767m-6.569 4.247l.014-23.179c.001-.56.122-.939.366-1.137.243-.197.72-.296 1.431-.296l3.087.002c.748.001 1.234.1 1.46.298.224.197.336.577.335 1.136l-.006 9.391c1.685-1.482 4.08-2.222 7.186-2.22 3.741.003 6.603.952 8.586 2.847 1.981 1.896 2.971 4.606 2.97 8.132l-.004 5.338c-.002 3.427-1.146 6.111-3.428 8.054-2.284 1.943-5.41 2.912-9.375 2.91-4.342-.002-7.53-1.009-9.568-3.02-2.039-2.01-3.056-4.763-3.054-8.256M57.108 11.858l-.015 23.031c0 .593-.122.981-.365 1.161-.244.181-.722.272-1.432.271l-3.086-.002c-.712 0-1.189-.09-1.432-.273-.243-.18-.364-.568-.363-1.16l.013-23.032c.001-.593.122-.979.367-1.16.242-.182.72-.273 1.43-.272l3.087.001c.711.001 1.188.092 1.432.274.242.181.364.568.364 1.161m-3.31-4.4c-1.16 0-2.086-.265-2.777-.793-.692-.527-1.038-1.252-1.037-2.175l.001-1.038c0-.955.346-1.688 1.04-2.199.691-.509 1.618-.765 2.778-.764 1.198.001 2.141.257 2.834.768.692.512 1.037 1.245 1.037 2.2v1.038c-.002.923-.348 1.648-1.04 2.174-.694.527-1.638.79-2.836.79" fill="#FF4C47"/>
<g transform="translate(90 10.213)">
<mask id="f" fill="#fff">
<use xlink:href="#g"/>
</mask>
<path d="M16.298 33.335l-3.144-.002c-3.293-.002-5.555-.703-6.79-2.104-1.233-1.401-1.85-3.29-1.847-5.661l.008-13.294-2.975-.002c-.562 0-.936-.091-1.122-.272-.19-.181-.28-.552-.28-1.112V8.812C.15 8.252.243 7.88.43 7.7c.187-.181.56-.272 1.123-.272l2.974.002.004-5.831c0-.594.12-.98.366-1.161.243-.181.72-.272 1.43-.271h3.088c.71 0 1.188.093 1.43.274.244.182.366.568.365 1.162l-.004 5.83 5.108.005c.56 0 .935.09 1.123.272.186.182.28.552.28 1.112l-.002 2.076c0 .56-.094.932-.281 1.11-.188.183-.562.273-1.123.273l-5.108-.003-.008 12.405c0 1.219.233 2.118.7 2.694.468.577 1.263.865 2.385.866l2.02.002c.562 0 .936.09 1.123.272.187.18.28.552.28 1.112l-.001 2.323c0 .56-.085.93-.254 1.112-.168.18-.551.27-1.15.27" fill="#FF4C47" mask="url(#f)"/>
</g>
<g transform="translate(0 16.213)">
<mask id="c" fill="#fff">
<use xlink:href="#e"/>
</mask>
<path d="M3.378 3.698C1.131 5.707.007 8.523.005 12.147l-.003 4.58c-.038.918.536 1.89 1.326 2.278 1.334.656 3.473-.271 5.39-1.459-.044-.415-.065-.854-.065-1.317l.003-3.805c.002-4.514 2.024-6.77 6.065-6.768 4.078.002 6.117 2.261 6.114 6.775l-.002 3.805c-.003 4.515-2.044 6.77-6.122 6.768-3.117-.003-5.029-1.347-5.74-4.032l-4.497 5.226c.275.306.57.6.89.876 2.244 1.929 5.368 2.895 9.372 2.896 4.003.002 7.128-1 9.375-3.008 2.246-2.008 3.371-4.824 3.373-8.45l.002-4.843c.003-3.46-1.118-6.154-3.362-8.082C19.88 1.658 16.756.691 12.752.689h-.016c-3.996 0-7.115 1.004-9.358 3.009" fill="url(#d)" mask="url(#c)"/>
</g>
<path transform="translate(0 4.213)" d="m0.36 0.954-0.189 1.118h1.527l-0.882 5.199h1.055l0.883-5.199h1.527l0.189-1.118zm4.377 0-1.072 6.317h3.836l0.19-1.117h-2.802l0.278-1.637h2.464l0.189-1.117h-2.464l0.226-1.328h2.682l0.189-1.118zm4.332 0-1.072 6.317h3.569l0.193-1.143h-2.512l0.878-5.174zm4.018 0-1.072 6.317h1.056l0.363-2.138 0.6-0.633 1.092 2.771h1.358l-1.548-3.73 2.501-2.587h-1.366l-2.364 2.569 0.436-2.569z" fill="#000"/>
<path transform="translate(0 4.213)" d="m19.763 1.904c0.873 0 1.233 0.862 1.006 2.2-0.246 1.451-0.932 2.217-1.75 2.217-0.865 0-1.225-0.862-0.997-2.209 0.25-1.469 0.959-2.208 1.74-2.208m0.198-1.117c-1.112 0-2.562 0.791-2.992 3.325-0.422 2.481 0.703 3.326 1.863 3.326 1.12 0 2.562-0.783 2.995-3.334 0.428-2.526-0.768-3.317-1.866-3.317m2.826 0.167-1.072 6.317h0.985l0.895-5.27h0.014l0.027 5.27h1.035l1.839-5.279 0.015-9e-3 -0.897 5.288h0.986l1.071-6.317h-1.526l-1.747 4.98h-0.014l-0.069-4.98z" fill="#000"/>
<g transform="translate(27 4.213)">
<mask id="a" fill="#fff">
<use xlink:href="#b"/>
</mask>
<path d="M3.116.787C1.476.787.963 2.027.842 2.74c-.233 1.373.507 1.654 1.29 1.848l.523.158c.509.159.858.29.774.792-.118.695-.771.81-1.187.81-.584 0-1.003-.265-.903-1.021H.325c-.228 1.346.452 2.11 1.782 2.11 1.007 0 2.107-.553 2.364-2.066.209-1.232-.502-1.522-1.07-1.707l-1.133-.37c-.201-.061-.508-.158-.422-.668.096-.563.606-.748 1.007-.748.923 0 .893.668.874.95H4.74C4.865 2.054 4.664.787 3.116.787" fill="#000" mask="url(#a)"/>
</g>
<path transform="translate(0 4.213)" d="m32.66 0.954-1.072 6.317h3.836l0.19-1.117h-2.802l0.278-1.637h2.464l0.189-1.117h-2.463l0.225-1.328h2.682l0.19-1.118zm4.333 0-1.072 6.317h3.569l0.193-1.143h-2.512l0.878-5.174z" fill="#000"/>
</g>
</svg>
