<?xml version="1.0" encoding="UTF-8"?>
<svg enable-background="new 0 0 108 48" version="1.1" viewBox="0 0 108 48" xml:space="preserve" xmlns="http://www.w3.org/2000/svg">
<style type="text/css">
	.st0{fill-rule:evenodd;clip-rule:evenodd;fill:#FF4C47;}
	.st1{filter:url(#g);}
	.st2{fill-rule:evenodd;clip-rule:evenodd;fill:#FFFFFF;}
	.st3{mask:url(#c);fill-rule:evenodd;clip-rule:evenodd;fill:#FF4C47;}
	.st4{filter:url(#f);}
	.st5{mask:url(#b);fill-rule:evenodd;clip-rule:evenodd;fill:url(#d);}
	.st6{filter:url(#e);}
	.st7{mask:url(#a);fill-rule:evenodd;clip-rule:evenodd;fill:#FFFFFF;}
</style>
	<path class="st0" d="m36.5 19v2.4c0.6-1.1 1.5-2 2.8-2.7s2.6-1.1 4.1-1.1h1.2c0.6 0 0.9 0.1 1.1 0.3s0.3 0.6 0.3 1.1v2.7c0 0.6-0.1 0.9-0.3 1.1-0.1 0.2-0.5 0.2-1 0.2h-1.6c-1.9 0-3.5 0.5-4.7 1.7-1.2 1.1-1.8 2.6-1.8 4.4v13c0 0.6-0.1 0.9-0.3 1.1s-0.7 0.3-1.5 0.3h-3.1c-0.7 0-1.2-0.1-1.4-0.3s-0.3-0.6-0.3-1.1v-23c0-0.6 0.1-0.9 0.4-1.1 0.2-0.2 0.7-0.3 1.4-0.3h3c0.7 0 1.2 0.1 1.5 0.3 0.1 0.1 0.2 0.5 0.2 1m19.6 9.7v3.8c0 4.5 2 6.8 6.1 6.8s6.1-2.3 6.1-6.8v-3.8c0-4.5-2-6.8-6.1-6.8s-6.1 2.3-6.1 6.8m-6.6 4.2v-23.2c0-0.6 0.1-0.9 0.4-1.1 0.2-0.2 0.7-0.3 1.4-0.3h3.1c0.7 0 1.2 0.1 1.5 0.3 0.2 0.2 0.3 0.6 0.3 1.1v9.4c1.7-1.5 4.1-2.2 7.2-2.2 3.7 0 6.6 1 8.6 2.8 2 1.9 3 4.6 3 8.1v5.3c0 3.4-1.1 6.1-3.4 8.1-2.3 1.9-5.4 2.9-9.4 2.9-4.3 0-7.5-1-9.6-3-2.1-1.9-3.1-4.7-3.1-8.2m36.6-13.8v23c0 0.6-0.1 1-0.4 1.2-0.2 0.2-0.7 0.3-1.4 0.3h-3.1c-0.7 0-1.2-0.1-1.4-0.3s-0.4-0.6-0.4-1.2v-23c0-0.6 0.1-1 0.4-1.2 0.2-0.2 0.7-0.3 1.4-0.3h3.1c0.7 0 1.2 0.1 1.4 0.3 0.3 0.2 0.4 0.6 0.4 1.2m-3.3-4.4c-1.2 0-2.1-0.3-2.8-0.8s-1-1.3-1-2.2v-1c0-1 0.3-1.7 1-2.2s1.6-0.8 2.8-0.8 2.1 0.3 2.8 0.8 1 1.2 1 2.2v1c0 0.9-0.3 1.6-1 2.2-0.7 0.5-1.6 0.8-2.8 0.8"/>
	<g transform="translate(90 10.213)">
		<defs>
			<filter id="g" x=".1" y=".2" width="17.6" height="33.2" filterUnits="userSpaceOnUse">
				<feColorMatrix values="1 0 0 0 0  0 1 0 0 0  0 0 1 0 0  0 0 0 1 0"/>
			</filter>
		</defs>
		<mask id="c" x="0.1" y="0.2" width="17.6" height="33.2" maskUnits="userSpaceOnUse">
			<g class="st1">
				<path class="st2" d="M0.1,0.2h17.6v33.2H0.1V0.2z"/>
			</g>
		</mask>
		<path class="st3" d="m16.3 33.3h-3.1c-3.3 0-5.6-0.7-6.8-2.1s-1.8-3.3-1.8-5.7v-13.3h-3c-0.6 0-0.9-0.1-1.1-0.3s-0.3-0.6-0.3-1.1v-2c0-0.6 0.1-0.9 0.3-1.1 0.1-0.2 0.5-0.3 1.1-0.3h3v-5.8c0-0.6 0.1-1 0.4-1.2 0.2-0.2 0.7-0.3 1.4-0.3h3.1c0.7 0 1.2 0.1 1.4 0.3s0.4 0.6 0.4 1.2v5.8h5.1c0.6 0 0.9 0.1 1.1 0.3s0.3 0.6 0.3 1.1v2.1c0 0.6-0.1 0.9-0.3 1.1s-0.6 0.3-1.1 0.3h-5.1v12.4c0 1.2 0.2 2.1 0.7 2.7s1.3 0.9 2.4 0.9h2c0.6 0 0.9 0.1 1.1 0.3s0.3 0.6 0.3 1.1v2.3c0 0.6-0.1 0.9-0.3 1.1-0.2 0.1-0.6 0.2-1.2 0.2"/>
	</g>
<g transform="translate(0 16.213)">
	<defs>
		<filter id="f" x="0" y=".7" width="25.5" height="27.3" filterUnits="userSpaceOnUse">
			<feColorMatrix values="1 0 0 0 0  0 1 0 0 0  0 0 1 0 0  0 0 0 1 0"/>
		</filter>
	</defs>
	<mask id="b" x="0" y="0.7" width="25.5" height="27.3" maskUnits="userSpaceOnUse">
		<g class="st4">
			<path class="st2" d="m3.4 3.7c-2.3 2-3.4 4.8-3.4 8.4v4.6c0 0.9 0.5 1.9 1.3 2.3 1.3 0.7 3.5-0.3 5.4-1.5 0-0.4-0.1-0.9-0.1-1.3v-3.8c0-4.5 2-6.8 6.1-6.8s6.1 2.3 6.1 6.8v3.8c0 4.5-2 6.8-6.1 6.8-3.1 0-5-1.3-5.7-4l-4.5 5.2 0.9 0.9c2.2 1.9 5.3 2.9 9.3 2.9s7.1-1 9.4-3c2.2-2 3.4-4.8 3.4-8.5v-4.8c0-3.5-1.1-6.2-3.4-8.1-2.2-1.9-5.4-2.9-9.4-2.9s-7.1 1-9.3 3"/>
		</g>
	</mask>
		<linearGradient id="d" x1="-233.28" x2="-232.65" y1="295.16" y2="295.96" gradientTransform="matrix(25.486 0 0 -27.281 5950 8077.4)" gradientUnits="userSpaceOnUse">
		<stop stop-color="#FF4B46" offset="0"/>
		<stop stop-color="#FFD6A1" offset="1"/>
	</linearGradient>
	<path class="st5" d="m3.4 3.7c-2.3 2-3.4 4.8-3.4 8.4v4.6c0 0.9 0.5 1.9 1.3 2.3 1.3 0.7 3.5-0.3 5.4-1.5 0-0.4-0.1-0.9-0.1-1.3v-3.8c0-4.5 2-6.8 6.1-6.8s6.1 2.3 6.1 6.8v3.8c0 4.5-2 6.8-6.1 6.8-3.1 0-5-1.3-5.7-4l-4.5 5.2 0.9 0.9c2.2 1.9 5.3 2.9 9.3 2.9s7.1-1 9.4-3c2.2-2 3.4-4.8 3.4-8.5v-4.8c0-3.5-1.1-6.2-3.4-8.1-2.2-1.9-5.4-2.9-9.4-2.9s-7.1 1-9.3 3"/>
</g>
	<path class="st2" d="m0.4 5.2-0.2 1.1h1.5l-0.9 5.2h1.1l0.9-5.2h1.5l0.2-1.1h-4.1zm4.3 0-1.1 6.3h3.8l0.2-1.1h-2.7l0.3-1.6h2.5l0.2-1.1h-2.5l0.2-1.3h2.7l0.2-1.1h-3.8zm4.4 0-1.1 6.3h3.6l0.2-1.1h-2.6l0.9-5.2h-1zm4 0-1.1 6.3h1.1l0.4-2.1 0.5-0.7 1.1 2.8h1.4l-1.5-3.7 2.5-2.6h-1.4l-2.4 2.6 0.4-2.6h-1z"/>
	<path class="st2" d="m19.8 6.1c0.9 0 1.2 0.9 1 2.2-0.2 1.5-0.9 2.2-1.8 2.2s-1.2-0.9-1-2.2c0.3-1.4 1-2.2 1.8-2.2m0.2-1.1c-1.1 0-2.6 0.8-3 3.3s0.7 3.3 1.9 3.3c1.1 0 2.6-0.8 3-3.3s-0.8-3.3-1.9-3.3m2.8 0.2-1.1 6.3h1l0.9-5.3v5.3h1l1.8-5.3-0.9 5.3h1l1.1-6.3h-1.5l-1.7 5-0.1-5h-1.5z"/>
	<g transform="translate(27 4.213)">
		<defs>
			<filter id="e" x=".3" y=".8" width="4.5" height="6.7" filterUnits="userSpaceOnUse">
				<feColorMatrix values="1 0 0 0 0  0 1 0 0 0  0 0 1 0 0  0 0 0 1 0"/>
			</filter>
		</defs>
		<mask id="a" x="0.3" y="0.8" width="4.5" height="6.7" maskUnits="userSpaceOnUse">
			<g class="st6">
				<path class="st2" d="M0.3,0.8h4.5v6.7H0.3V0.8z"/>
			</g>
		</mask>
		<path class="st7" d="m3.1 0.8c-1.6 0-2.1 1.2-2.3 1.9-0.2 1.4 0.5 1.7 1.3 1.9l0.5 0.2c0.6 0.1 0.9 0.2 0.8 0.7-0.1 0.7-0.7 0.8-1.2 0.8-0.6 0-1-0.3-0.9-1h-1c-0.2 1.4 0.5 2.1 1.8 2.1 1 0 2.1-0.6 2.4-2.1 0.2-1.2-0.5-1.5-1.1-1.6l-1.1-0.4c-0.2-0.1-0.5-0.2-0.5-0.7 0.1-0.6 0.6-0.7 1-0.7 0.9 0 0.9 0.7 0.9 0.9h1c0.2-0.7 0-2-1.6-2"/>
	</g>
	<path class="st2" d="m32.7 5.2-1.1 6.3h3.8l0.2-1.1h-2.8l0.3-1.6h2.5l0.2-1.1h-2.5l0.2-1.3h2.7l0.2-1.1h-3.7zm4.3 0-1.1 6.3h3.6l0.2-1.1h-2.5l0.8-5.2h-1z"/>
</svg>
